<mxfile host="Electron" modified="2023-11-14T15:50:41.997Z" agent="Mozilla/5.0 (Windows NT 10.0; Win64; x64) AppleWebKit/537.36 (KHTML, like Gecko) draw.io/21.6.8 Chrome/114.0.5735.289 Electron/25.5.0 Safari/537.36" etag="UE5aWSmIexaNMHWt1X57" version="21.6.8" type="device">
  <diagram name="PÃ¡gina-1" id="Rcah1GHpaaxLEJ-TN8oH">
    <mxGraphModel dx="977" dy="564" grid="1" gridSize="10" guides="1" tooltips="1" connect="1" arrows="1" fold="1" page="1" pageScale="1" pageWidth="827" pageHeight="1169" math="0" shadow="0">
      <root>
        <mxCell id="0" />
        <mxCell id="1" parent="0" />
        <mxCell id="YTsK9UqUQmDEPlRHkQFI-1" value="" style="whiteSpace=wrap;html=1;aspect=fixed;rotation=45;fillColor=#74c82d;strokeColor=none;" parent="1" vertex="1">
          <mxGeometry x="360" y="380" width="20" height="20" as="geometry" />
        </mxCell>
      </root>
    </mxGraphModel>
  </diagram>
</mxfile>
